<mxfile host="app.diagrams.net" modified="2024-03-27T07:01:31.737Z" agent="Mozilla/5.0 (Windows NT 10.0; Win64; x64) AppleWebKit/537.36 (KHTML, like Gecko) Chrome/123.0.0.0 Safari/537.36" etag="FCUQOsjFqZM3urm6OQy-" version="24.1.0" type="google" pages="2">
  <diagram name="Page-1" id="d8k_FDR1JcZXPVS89Ixu">
    <mxGraphModel grid="1" page="1" gridSize="1" guides="1" tooltips="1" connect="1" arrows="1" fold="1" pageScale="1" pageWidth="827" pageHeight="1169" math="0" shadow="0">
      <root>
        <mxCell id="0" />
        <mxCell id="1" parent="0" />
        <mxCell id="SagK8S-FZXaCOz4RWenR-1" style="edgeStyle=orthogonalEdgeStyle;rounded=0;orthogonalLoop=1;jettySize=auto;html=1;exitX=0.5;exitY=1;exitDx=0;exitDy=0;entryX=0.5;entryY=0;entryDx=0;entryDy=0;endArrow=classic;endFill=1;dashed=1;dashPattern=8 8;" edge="1" parent="1" source="SagK8S-FZXaCOz4RWenR-6" target="SagK8S-FZXaCOz4RWenR-12">
          <mxGeometry relative="1" as="geometry" />
        </mxCell>
        <mxCell id="SagK8S-FZXaCOz4RWenR-2" value="" style="edgeStyle=orthogonalEdgeStyle;rounded=0;orthogonalLoop=1;jettySize=auto;html=1;endArrow=classic;endFill=1;" edge="1" parent="1" source="SagK8S-FZXaCOz4RWenR-6" target="SagK8S-FZXaCOz4RWenR-26">
          <mxGeometry relative="1" as="geometry">
            <Array as="points">
              <mxPoint x="-77" y="449" />
              <mxPoint x="-77" y="449" />
            </Array>
          </mxGeometry>
        </mxCell>
        <mxCell id="SagK8S-FZXaCOz4RWenR-3" value="&lt;font style=&quot;font-size: 16px;&quot;&gt;logs into&lt;/font&gt;" style="edgeLabel;html=1;align=center;verticalAlign=middle;resizable=0;points=[];" connectable="0" vertex="1" parent="SagK8S-FZXaCOz4RWenR-2">
          <mxGeometry x="0.0952" relative="1" as="geometry">
            <mxPoint y="25" as="offset" />
          </mxGeometry>
        </mxCell>
        <mxCell id="SagK8S-FZXaCOz4RWenR-4" style="edgeStyle=orthogonalEdgeStyle;rounded=0;orthogonalLoop=1;jettySize=auto;html=1;exitX=1;exitY=0.5;exitDx=0;exitDy=0;entryX=0;entryY=0.5;entryDx=0;entryDy=0;endArrow=classic;endFill=1;dashed=1;dashPattern=8 8;" edge="1" parent="1" source="SagK8S-FZXaCOz4RWenR-6" target="SagK8S-FZXaCOz4RWenR-13">
          <mxGeometry relative="1" as="geometry" />
        </mxCell>
        <mxCell id="SagK8S-FZXaCOz4RWenR-6" value="&lt;font style=&quot;font-size: 17px;&quot;&gt;Player&lt;/font&gt;" style="rounded=0;whiteSpace=wrap;html=1;" vertex="1" parent="1">
          <mxGeometry x="-139" y="488" width="130" height="60" as="geometry" />
        </mxCell>
        <mxCell id="SagK8S-FZXaCOz4RWenR-7" style="edgeStyle=orthogonalEdgeStyle;rounded=0;orthogonalLoop=1;jettySize=auto;html=1;exitX=1;exitY=0.5;exitDx=0;exitDy=0;entryX=0;entryY=0.5;entryDx=0;entryDy=0;endArrow=classic;endFill=1;" edge="1" parent="1" source="SagK8S-FZXaCOz4RWenR-12" target="SagK8S-FZXaCOz4RWenR-20">
          <mxGeometry relative="1" as="geometry">
            <Array as="points">
              <mxPoint x="113" y="681" />
              <mxPoint x="113" y="741" />
            </Array>
          </mxGeometry>
        </mxCell>
        <mxCell id="SagK8S-FZXaCOz4RWenR-8" value="&lt;font style=&quot;font-size: 16px;&quot;&gt;solved by&lt;/font&gt;" style="edgeLabel;html=1;align=center;verticalAlign=middle;resizable=0;points=[];" connectable="0" vertex="1" parent="SagK8S-FZXaCOz4RWenR-7">
          <mxGeometry x="-0.0143" relative="1" as="geometry">
            <mxPoint x="-55" y="-27" as="offset" />
          </mxGeometry>
        </mxCell>
        <mxCell id="SagK8S-FZXaCOz4RWenR-9" value="" style="edgeStyle=orthogonalEdgeStyle;rounded=0;orthogonalLoop=1;jettySize=auto;html=1;exitX=0.25;exitY=1;exitDx=0;exitDy=0;entryX=0.5;entryY=0;entryDx=0;entryDy=0;endArrow=block;endFill=0;startSize=7;endSize=10;dashed=1;dashPattern=8 8;" edge="1" parent="1" source="SagK8S-FZXaCOz4RWenR-12" target="SagK8S-FZXaCOz4RWenR-53">
          <mxGeometry relative="1" as="geometry">
            <Array as="points">
              <mxPoint x="-106" y="763" />
              <mxPoint x="-428" y="763" />
            </Array>
            <mxPoint x="-106.5" y="692" as="sourcePoint" />
            <mxPoint x="-659" y="801" as="targetPoint" />
          </mxGeometry>
        </mxCell>
        <mxCell id="SagK8S-FZXaCOz4RWenR-10" style="edgeStyle=orthogonalEdgeStyle;rounded=0;orthogonalLoop=1;jettySize=auto;html=1;exitX=0.056;exitY=0.993;exitDx=0;exitDy=0;entryX=1;entryY=0.5;entryDx=0;entryDy=0;endArrow=classic;endFill=1;exitPerimeter=0;" edge="1" parent="1" source="SagK8S-FZXaCOz4RWenR-12" target="SagK8S-FZXaCOz4RWenR-65">
          <mxGeometry relative="1" as="geometry">
            <Array as="points">
              <mxPoint x="-132" y="732" />
            </Array>
          </mxGeometry>
        </mxCell>
        <mxCell id="SagK8S-FZXaCOz4RWenR-11" value="&lt;font style=&quot;font-size: 16px;&quot;&gt;defined by&lt;/font&gt;" style="edgeLabel;html=1;align=center;verticalAlign=middle;resizable=0;points=[];" connectable="0" vertex="1" parent="SagK8S-FZXaCOz4RWenR-10">
          <mxGeometry x="0.0209" relative="1" as="geometry">
            <mxPoint as="offset" />
          </mxGeometry>
        </mxCell>
        <mxCell id="SagK8S-FZXaCOz4RWenR-12" value="&lt;span style=&quot;font-size: 17px;&quot;&gt;&lt;i&gt;Puzzle&lt;/i&gt;&lt;/span&gt;" style="rounded=0;whiteSpace=wrap;html=1;" vertex="1" parent="1">
          <mxGeometry x="-139" y="651" width="130" height="60" as="geometry" />
        </mxCell>
        <mxCell id="SagK8S-FZXaCOz4RWenR-13" value="&lt;font style=&quot;font-size: 17px;&quot;&gt;Move&lt;/font&gt;" style="rounded=0;whiteSpace=wrap;html=1;" vertex="1" parent="1">
          <mxGeometry x="229" y="488" width="130" height="60" as="geometry" />
        </mxCell>
        <mxCell id="MEc6MLY_YhdrfmXQtaSU-2" style="edgeStyle=orthogonalEdgeStyle;rounded=0;orthogonalLoop=1;jettySize=auto;html=1;exitX=0.5;exitY=0;exitDx=0;exitDy=0;entryX=0.5;entryY=1;entryDx=0;entryDy=0;endArrow=block;endFill=0;endSize=10;" edge="1" parent="1" source="SagK8S-FZXaCOz4RWenR-14" target="SagK8S-FZXaCOz4RWenR-12">
          <mxGeometry relative="1" as="geometry">
            <Array as="points">
              <mxPoint x="-176" y="783" />
              <mxPoint x="-74" y="783" />
            </Array>
          </mxGeometry>
        </mxCell>
        <mxCell id="SagK8S-FZXaCOz4RWenR-14" value="&lt;span style=&quot;font-size: 17px;&quot;&gt;WordPuzzle&lt;/span&gt;" style="rounded=0;whiteSpace=wrap;html=1;" vertex="1" parent="1">
          <mxGeometry x="-241" y="806" width="130" height="60" as="geometry" />
        </mxCell>
        <mxCell id="SagK8S-FZXaCOz4RWenR-15" value="&lt;span style=&quot;font-size: 17px;&quot;&gt;Math&lt;/span&gt;&lt;span style=&quot;font-size: 17px;&quot;&gt;Puzzle&lt;/span&gt;" style="rounded=0;whiteSpace=wrap;html=1;" vertex="1" parent="1">
          <mxGeometry x="-12" y="806" width="130" height="60" as="geometry" />
        </mxCell>
        <mxCell id="SagK8S-FZXaCOz4RWenR-18" style="edgeStyle=orthogonalEdgeStyle;rounded=0;orthogonalLoop=1;jettySize=auto;html=1;exitX=1;exitY=0.5;exitDx=0;exitDy=0;entryX=0;entryY=0.5;entryDx=0;entryDy=0;dashed=1;dashPattern=8 8;endArrow=classic;endFill=1;fillColor=#f8cecc;strokeColor=#000000;" edge="1" parent="1" source="SagK8S-FZXaCOz4RWenR-19" target="SagK8S-FZXaCOz4RWenR-69">
          <mxGeometry relative="1" as="geometry" />
        </mxCell>
        <mxCell id="jUfTpJKPdLPgRhChKZlu-4" style="edgeStyle=orthogonalEdgeStyle;rounded=0;orthogonalLoop=1;jettySize=auto;html=1;exitX=0.082;exitY=0.001;exitDx=0;exitDy=0;entryX=0;entryY=0.5;entryDx=0;entryDy=0;dashed=1;dashPattern=8 8;endArrow=classic;endFill=1;exitPerimeter=0;" edge="1" parent="1" source="SagK8S-FZXaCOz4RWenR-19" target="SagK8S-FZXaCOz4RWenR-65">
          <mxGeometry relative="1" as="geometry">
            <Array as="points">
              <mxPoint x="-204" y="115" />
              <mxPoint x="-815" y="115" />
              <mxPoint x="-815" y="732" />
            </Array>
          </mxGeometry>
        </mxCell>
        <mxCell id="SagK8S-FZXaCOz4RWenR-19" value="&lt;font style=&quot;font-size: 17px;&quot;&gt;Leaderboard&lt;/font&gt;" style="rounded=0;whiteSpace=wrap;html=1;" vertex="1" parent="1">
          <mxGeometry x="-215" y="134" width="131" height="61" as="geometry" />
        </mxCell>
        <mxCell id="SagK8S-FZXaCOz4RWenR-20" value="&lt;span style=&quot;font-size: 17px;&quot;&gt;Hint&lt;/span&gt;" style="rounded=0;whiteSpace=wrap;html=1;" vertex="1" parent="1">
          <mxGeometry x="233" y="711" width="130" height="60" as="geometry" />
        </mxCell>
        <mxCell id="SagK8S-FZXaCOz4RWenR-21" style="edgeStyle=orthogonalEdgeStyle;rounded=0;orthogonalLoop=1;jettySize=auto;html=1;endArrow=classic;endFill=1;startArrow=diamond;startFill=1;startSize=10;entryX=0;entryY=0.5;entryDx=0;entryDy=0;" edge="1" parent="1" target="SagK8S-FZXaCOz4RWenR-57">
          <mxGeometry relative="1" as="geometry">
            <mxPoint x="141" y="319" as="targetPoint" />
            <mxPoint x="-9" y="328" as="sourcePoint" />
          </mxGeometry>
        </mxCell>
        <mxCell id="SagK8S-FZXaCOz4RWenR-22" value="&lt;font style=&quot;font-size: 16px;&quot;&gt;has&lt;/font&gt;" style="edgeLabel;html=1;align=center;verticalAlign=middle;resizable=0;points=[];" connectable="0" vertex="1" parent="SagK8S-FZXaCOz4RWenR-21">
          <mxGeometry x="-0.0442" y="-3" relative="1" as="geometry">
            <mxPoint x="1" y="2" as="offset" />
          </mxGeometry>
        </mxCell>
        <mxCell id="SagK8S-FZXaCOz4RWenR-23" value="" style="edgeStyle=orthogonalEdgeStyle;rounded=0;orthogonalLoop=1;jettySize=auto;html=1;dashed=1;dashPattern=8 8;endArrow=none;endFill=0;startArrow=classic;startFill=1;entryX=0.5;entryY=1;entryDx=0;entryDy=0;exitX=0.086;exitY=0.007;exitDx=0;exitDy=0;exitPerimeter=0;" edge="1" parent="1" source="SagK8S-FZXaCOz4RWenR-26">
          <mxGeometry relative="1" as="geometry">
            <mxPoint x="-128" y="274" as="sourcePoint" />
            <mxPoint x="-129" y="196" as="targetPoint" />
            <Array as="points">
              <mxPoint x="-129" y="236" />
            </Array>
          </mxGeometry>
        </mxCell>
        <mxCell id="SagK8S-FZXaCOz4RWenR-24" style="edgeStyle=orthogonalEdgeStyle;rounded=0;orthogonalLoop=1;jettySize=auto;html=1;entryX=0.5;entryY=1;entryDx=0;entryDy=0;endArrow=classic;endFill=1;exitX=1;exitY=0.25;exitDx=0;exitDy=0;" edge="1" parent="1" source="SagK8S-FZXaCOz4RWenR-26" target="SagK8S-FZXaCOz4RWenR-69">
          <mxGeometry relative="1" as="geometry">
            <mxPoint x="222" y="208" as="targetPoint" />
            <mxPoint x="-16" y="249" as="sourcePoint" />
          </mxGeometry>
        </mxCell>
        <mxCell id="SagK8S-FZXaCOz4RWenR-25" value="&lt;font style=&quot;font-size: 16px;&quot;&gt;unlocks&lt;/font&gt;" style="edgeLabel;html=1;align=center;verticalAlign=middle;resizable=0;points=[];" connectable="0" vertex="1" parent="SagK8S-FZXaCOz4RWenR-24">
          <mxGeometry x="-0.194" y="-2" relative="1" as="geometry">
            <mxPoint x="-24" y="-2" as="offset" />
          </mxGeometry>
        </mxCell>
        <mxCell id="nuyOhPA4E1JzYJuZMhao-5" style="edgeStyle=orthogonalEdgeStyle;rounded=0;orthogonalLoop=1;jettySize=auto;html=1;exitX=0;exitY=0.5;exitDx=0;exitDy=0;entryX=0.25;entryY=1;entryDx=0;entryDy=0;dashed=1;dashPattern=8 8;endArrow=none;endFill=0;startArrow=classic;startFill=1;" edge="1" parent="1" source="SagK8S-FZXaCOz4RWenR-26" target="nuyOhPA4E1JzYJuZMhao-1">
          <mxGeometry relative="1" as="geometry" />
        </mxCell>
        <mxCell id="SagK8S-FZXaCOz4RWenR-26" value="&lt;font style=&quot;font-size: 17px;&quot;&gt;AccountProfile&lt;/font&gt;" style="rounded=0;whiteSpace=wrap;html=1;" vertex="1" parent="1">
          <mxGeometry x="-140" y="274" width="130" height="60" as="geometry" />
        </mxCell>
        <mxCell id="SagK8S-FZXaCOz4RWenR-27" value="&lt;font style=&quot;font-size: 16px;&quot;&gt;played by&lt;/font&gt;" style="edgeStyle=orthogonalEdgeStyle;rounded=0;orthogonalLoop=1;jettySize=auto;html=1;endArrow=classic;endFill=1;startArrow=diamond;startFill=1;endSize=6;startSize=10;" edge="1" parent="1" source="SagK8S-FZXaCOz4RWenR-34" target="SagK8S-FZXaCOz4RWenR-6">
          <mxGeometry relative="1" as="geometry" />
        </mxCell>
        <mxCell id="SagK8S-FZXaCOz4RWenR-28" style="edgeStyle=orthogonalEdgeStyle;rounded=0;orthogonalLoop=1;jettySize=auto;html=1;exitX=0.5;exitY=1;exitDx=0;exitDy=0;entryX=0;entryY=0.5;entryDx=0;entryDy=0;endArrow=classic;endFill=1;startArrow=diamond;startFill=1;startSize=10;" edge="1" parent="1" source="SagK8S-FZXaCOz4RWenR-34" target="SagK8S-FZXaCOz4RWenR-12">
          <mxGeometry relative="1" as="geometry" />
        </mxCell>
        <mxCell id="SagK8S-FZXaCOz4RWenR-29" value="&lt;font style=&quot;font-size: 16px;&quot;&gt;offers&lt;/font&gt;" style="edgeLabel;html=1;align=center;verticalAlign=middle;resizable=0;points=[];" connectable="0" vertex="1" parent="SagK8S-FZXaCOz4RWenR-28">
          <mxGeometry x="0.1445" y="-1" relative="1" as="geometry">
            <mxPoint y="-1" as="offset" />
          </mxGeometry>
        </mxCell>
        <mxCell id="SagK8S-FZXaCOz4RWenR-30" value="" style="edgeStyle=orthogonalEdgeStyle;rounded=0;orthogonalLoop=1;jettySize=auto;html=1;endArrow=none;endFill=0;startArrow=classic;startFill=1;" edge="1" parent="1" source="SagK8S-FZXaCOz4RWenR-34" target="SagK8S-FZXaCOz4RWenR-35">
          <mxGeometry relative="1" as="geometry" />
        </mxCell>
        <mxCell id="SagK8S-FZXaCOz4RWenR-31" value="&lt;font style=&quot;font-size: 16px;&quot;&gt;displays&lt;/font&gt;" style="edgeLabel;html=1;align=center;verticalAlign=middle;resizable=0;points=[];" connectable="0" vertex="1" parent="SagK8S-FZXaCOz4RWenR-30">
          <mxGeometry x="-0.039" relative="1" as="geometry">
            <mxPoint as="offset" />
          </mxGeometry>
        </mxCell>
        <mxCell id="SagK8S-FZXaCOz4RWenR-32" style="edgeStyle=orthogonalEdgeStyle;rounded=0;orthogonalLoop=1;jettySize=auto;html=1;exitX=0.5;exitY=0;exitDx=0;exitDy=0;entryX=0;entryY=0.5;entryDx=0;entryDy=0;startArrow=diamond;startFill=1;startSize=10;endArrow=classic;endFill=1;fillColor=#f8cecc;strokeColor=#000000;" edge="1" parent="1" source="SagK8S-FZXaCOz4RWenR-34" target="SagK8S-FZXaCOz4RWenR-19">
          <mxGeometry relative="1" as="geometry">
            <Array as="points">
              <mxPoint x="-403" y="165" />
            </Array>
          </mxGeometry>
        </mxCell>
        <mxCell id="SagK8S-FZXaCOz4RWenR-33" value="&lt;span style=&quot;font-size: 16px;&quot;&gt;consists of&lt;/span&gt;" style="edgeLabel;html=1;align=center;verticalAlign=middle;resizable=0;points=[];" connectable="0" vertex="1" parent="SagK8S-FZXaCOz4RWenR-32">
          <mxGeometry x="0.2135" y="2" relative="1" as="geometry">
            <mxPoint x="-3" y="81" as="offset" />
          </mxGeometry>
        </mxCell>
        <mxCell id="mExs0WxSLWpg3FDLOHm2-6" style="edgeStyle=orthogonalEdgeStyle;rounded=0;orthogonalLoop=1;jettySize=auto;html=1;entryX=0.238;entryY=-0.008;entryDx=0;entryDy=0;startArrow=diamond;startFill=1;startSize=10;endArrow=classic;endFill=1;entryPerimeter=0;" edge="1" parent="1" target="mExs0WxSLWpg3FDLOHm2-2">
          <mxGeometry relative="1" as="geometry">
            <mxPoint x="-456" y="486" as="sourcePoint" />
            <Array as="points">
              <mxPoint x="-456" y="12" />
              <mxPoint x="-36" y="12" />
            </Array>
          </mxGeometry>
        </mxCell>
        <mxCell id="mExs0WxSLWpg3FDLOHm2-7" value="&lt;font style=&quot;font-size: 16px;&quot;&gt;consists of&lt;/font&gt;" style="edgeLabel;html=1;align=center;verticalAlign=middle;resizable=0;points=[];" connectable="0" vertex="1" parent="mExs0WxSLWpg3FDLOHm2-6">
          <mxGeometry x="0.2226" y="-2" relative="1" as="geometry">
            <mxPoint x="-20" y="-1" as="offset" />
          </mxGeometry>
        </mxCell>
        <mxCell id="SagK8S-FZXaCOz4RWenR-34" value="&lt;font style=&quot;font-size: 17px;&quot;&gt;Game&lt;/font&gt;" style="rounded=0;whiteSpace=wrap;html=1;" vertex="1" parent="1">
          <mxGeometry x="-468" y="488" width="130" height="60" as="geometry" />
        </mxCell>
        <mxCell id="SagK8S-FZXaCOz4RWenR-35" value="&lt;font style=&quot;font-size: 17px;&quot;&gt;Display&lt;/font&gt;" style="rounded=0;whiteSpace=wrap;html=1;" vertex="1" parent="1">
          <mxGeometry x="-793" y="490" width="130" height="60" as="geometry" />
        </mxCell>
        <mxCell id="SagK8S-FZXaCOz4RWenR-41" value="&lt;font style=&quot;font-size: 20px;&quot;&gt;1&lt;/font&gt;" style="text;html=1;align=center;verticalAlign=middle;whiteSpace=wrap;rounded=0;fontSize=13;" vertex="1" parent="1">
          <mxGeometry x="-253" y="137" width="35" height="30" as="geometry" />
        </mxCell>
        <mxCell id="SagK8S-FZXaCOz4RWenR-42" value="&lt;font style=&quot;font-size: 20px;&quot;&gt;1&lt;/font&gt;" style="text;html=1;align=center;verticalAlign=middle;whiteSpace=wrap;rounded=0;fontSize=13;" vertex="1" parent="1">
          <mxGeometry x="-434" y="457" width="35" height="30" as="geometry" />
        </mxCell>
        <mxCell id="SagK8S-FZXaCOz4RWenR-43" value="&lt;font style=&quot;font-size: 20px;&quot;&gt;1&lt;/font&gt;" style="text;html=1;align=center;verticalAlign=middle;whiteSpace=wrap;rounded=0;fontSize=13;" vertex="1" parent="1">
          <mxGeometry x="-338" y="486" width="35" height="30" as="geometry" />
        </mxCell>
        <mxCell id="SagK8S-FZXaCOz4RWenR-44" value="&lt;font style=&quot;font-size: 30px;&quot;&gt;*&lt;/font&gt;" style="text;html=1;align=center;verticalAlign=middle;whiteSpace=wrap;rounded=0;fontSize=13;" vertex="1" parent="1">
          <mxGeometry x="-172" y="491" width="35" height="30" as="geometry" />
        </mxCell>
        <mxCell id="SagK8S-FZXaCOz4RWenR-45" value="&lt;font style=&quot;font-size: 20px;&quot;&gt;1&lt;/font&gt;" style="text;html=1;align=center;verticalAlign=middle;whiteSpace=wrap;rounded=0;fontSize=13;" vertex="1" parent="1">
          <mxGeometry x="-502" y="492" width="35" height="30" as="geometry" />
        </mxCell>
        <mxCell id="SagK8S-FZXaCOz4RWenR-46" value="&lt;font style=&quot;font-size: 20px;&quot;&gt;1&lt;/font&gt;" style="text;html=1;align=center;verticalAlign=middle;whiteSpace=wrap;rounded=0;fontSize=13;" vertex="1" parent="1">
          <mxGeometry x="-667" y="495" width="35" height="30" as="geometry" />
        </mxCell>
        <mxCell id="SagK8S-FZXaCOz4RWenR-47" value="&lt;font style=&quot;font-size: 20px;&quot;&gt;1&lt;/font&gt;" style="text;html=1;align=center;verticalAlign=middle;whiteSpace=wrap;rounded=0;fontSize=13;" vertex="1" parent="1">
          <mxGeometry x="-404" y="551" width="35" height="30" as="geometry" />
        </mxCell>
        <mxCell id="SagK8S-FZXaCOz4RWenR-50" value="&lt;font style=&quot;font-size: 20px;&quot;&gt;1&lt;/font&gt;" style="text;html=1;align=center;verticalAlign=middle;whiteSpace=wrap;rounded=0;fontSize=13;" vertex="1" parent="1">
          <mxGeometry x="-13.5" y="652" width="35" height="30" as="geometry" />
        </mxCell>
        <mxCell id="SagK8S-FZXaCOz4RWenR-51" value="&lt;font style=&quot;font-size: 20px;&quot;&gt;1&lt;/font&gt;" style="text;html=1;align=center;verticalAlign=middle;whiteSpace=wrap;rounded=0;fontSize=13;" vertex="1" parent="1">
          <mxGeometry x="-107" y="459" width="35" height="30" as="geometry" />
        </mxCell>
        <mxCell id="SagK8S-FZXaCOz4RWenR-53" value="&lt;div&gt;&lt;span style=&quot;font-size: 17px;&quot;&gt;&amp;lt;&amp;lt;interface&amp;gt;&amp;gt;&lt;/span&gt;&lt;/div&gt;&lt;span style=&quot;font-size: 17px;&quot;&gt;Timer&lt;/span&gt;" style="rounded=0;whiteSpace=wrap;html=1;" vertex="1" parent="1">
          <mxGeometry x="-493" y="810" width="130" height="60" as="geometry" />
        </mxCell>
        <mxCell id="SagK8S-FZXaCOz4RWenR-54" style="edgeStyle=orthogonalEdgeStyle;rounded=0;orthogonalLoop=1;jettySize=auto;html=1;endArrow=none;endFill=0;startArrow=classic;startFill=1;" edge="1" parent="1" source="SagK8S-FZXaCOz4RWenR-55">
          <mxGeometry relative="1" as="geometry">
            <mxPoint x="-77" y="379" as="targetPoint" />
            <Array as="points">
              <mxPoint x="-77" y="389" />
            </Array>
          </mxGeometry>
        </mxCell>
        <mxCell id="SagK8S-FZXaCOz4RWenR-55" value="&lt;font style=&quot;font-size: 17px;&quot;&gt;GuestProfile&lt;/font&gt;" style="rounded=0;whiteSpace=wrap;html=1;" vertex="1" parent="1">
          <mxGeometry x="-358" y="354" width="130" height="60" as="geometry" />
        </mxCell>
        <mxCell id="SagK8S-FZXaCOz4RWenR-57" value="&lt;font style=&quot;font-size: 17px;&quot;&gt;SavedProgress&lt;/font&gt;" style="rounded=0;whiteSpace=wrap;html=1;" vertex="1" parent="1">
          <mxGeometry x="143.5" y="330" width="130" height="60" as="geometry" />
        </mxCell>
        <mxCell id="SagK8S-FZXaCOz4RWenR-58" value="&lt;font style=&quot;font-size: 20px;&quot;&gt;1&lt;/font&gt;" style="text;html=1;align=center;verticalAlign=middle;whiteSpace=wrap;rounded=0;fontSize=13;" vertex="1" parent="1">
          <mxGeometry x="-13" y="300" width="35" height="30" as="geometry" />
        </mxCell>
        <mxCell id="SagK8S-FZXaCOz4RWenR-59" value="&lt;font style=&quot;font-size: 20px;&quot;&gt;0..2&lt;/font&gt;" style="text;html=1;align=center;verticalAlign=middle;whiteSpace=wrap;rounded=0;fontSize=13;" vertex="1" parent="1">
          <mxGeometry x="106" y="330" width="35" height="30" as="geometry" />
        </mxCell>
        <mxCell id="SagK8S-FZXaCOz4RWenR-60" style="edgeStyle=orthogonalEdgeStyle;rounded=0;orthogonalLoop=1;jettySize=auto;html=1;exitX=1;exitY=0.75;exitDx=0;exitDy=0;entryX=0.836;entryY=0.012;entryDx=0;entryDy=0;entryPerimeter=0;endArrow=none;endFill=0;startArrow=classic;startFill=1;dashed=1;dashPattern=8 8;" edge="1" parent="1" source="SagK8S-FZXaCOz4RWenR-57" target="SagK8S-FZXaCOz4RWenR-12">
          <mxGeometry relative="1" as="geometry">
            <Array as="points">
              <mxPoint x="391" y="375" />
              <mxPoint x="391" y="589" />
              <mxPoint x="-30" y="589" />
            </Array>
          </mxGeometry>
        </mxCell>
        <mxCell id="SagK8S-FZXaCOz4RWenR-61" value="&lt;font style=&quot;font-size: 20px;&quot;&gt;1..*&lt;/font&gt;" style="text;html=1;align=center;verticalAlign=middle;whiteSpace=wrap;rounded=0;fontSize=13;" vertex="1" parent="1">
          <mxGeometry x="198" y="741" width="35" height="30" as="geometry" />
        </mxCell>
        <mxCell id="SagK8S-FZXaCOz4RWenR-62" style="edgeStyle=orthogonalEdgeStyle;rounded=0;orthogonalLoop=1;jettySize=auto;html=1;exitX=0;exitY=0.5;exitDx=0;exitDy=0;endArrow=none;endFill=0;startArrow=classic;startFill=1;" edge="1" parent="1" source="SagK8S-FZXaCOz4RWenR-63">
          <mxGeometry relative="1" as="geometry">
            <mxPoint x="113" y="680.5" as="targetPoint" />
            <mxPoint x="233" y="653.4999999999998" as="sourcePoint" />
            <Array as="points">
              <mxPoint x="113" y="643" />
            </Array>
          </mxGeometry>
        </mxCell>
        <mxCell id="SagK8S-FZXaCOz4RWenR-63" value="&lt;span style=&quot;font-size: 17px;&quot;&gt;Solution&lt;/span&gt;" style="rounded=0;whiteSpace=wrap;html=1;" vertex="1" parent="1">
          <mxGeometry x="233" y="613" width="130" height="60" as="geometry" />
        </mxCell>
        <mxCell id="SagK8S-FZXaCOz4RWenR-64" value="&lt;font style=&quot;font-size: 20px;&quot;&gt;1&lt;/font&gt;" style="text;html=1;align=center;verticalAlign=middle;whiteSpace=wrap;rounded=0;fontSize=13;" vertex="1" parent="1">
          <mxGeometry x="204" y="613" width="35" height="30" as="geometry" />
        </mxCell>
        <mxCell id="SagK8S-FZXaCOz4RWenR-65" value="&lt;div&gt;&lt;font style=&quot;font-size: 17px;&quot;&gt;&amp;lt;&amp;lt;enumeration&amp;gt;&amp;gt;&lt;/font&gt;&lt;/div&gt;&lt;font style=&quot;font-size: 17px;&quot;&gt;DifficultyLevel&lt;/font&gt;" style="rounded=0;whiteSpace=wrap;html=1;" vertex="1" parent="1">
          <mxGeometry x="-708" y="702" width="183" height="60" as="geometry" />
        </mxCell>
        <mxCell id="SagK8S-FZXaCOz4RWenR-66" value="&lt;font style=&quot;font-size: 20px;&quot;&gt;2&lt;/font&gt;" style="text;html=1;align=center;verticalAlign=middle;whiteSpace=wrap;rounded=0;fontSize=13;" vertex="1" parent="1">
          <mxGeometry x="-163" y="705" width="35" height="30" as="geometry" />
        </mxCell>
        <mxCell id="SagK8S-FZXaCOz4RWenR-67" value="&lt;font style=&quot;font-size: 20px;&quot;&gt;1&lt;/font&gt;" style="text;html=1;align=center;verticalAlign=middle;whiteSpace=wrap;rounded=0;fontSize=13;" vertex="1" parent="1">
          <mxGeometry x="-527" y="703" width="31" height="30" as="geometry" />
        </mxCell>
        <mxCell id="SagK8S-FZXaCOz4RWenR-68" style="edgeStyle=orthogonalEdgeStyle;rounded=0;orthogonalLoop=1;jettySize=auto;html=1;entryX=0.5;entryY=0;entryDx=0;entryDy=0;dashed=1;dashPattern=8 8;endArrow=classic;endFill=1;" edge="1" parent="1" target="SagK8S-FZXaCOz4RWenR-65">
          <mxGeometry relative="1" as="geometry">
            <Array as="points">
              <mxPoint x="-616" y="601" />
              <mxPoint x="-616" y="669" />
              <mxPoint x="-616" y="669" />
            </Array>
            <mxPoint x="-74" y="601" as="sourcePoint" />
          </mxGeometry>
        </mxCell>
        <mxCell id="SagK8S-FZXaCOz4RWenR-69" value="&lt;font style=&quot;font-size: 17px;&quot;&gt;Achievement&lt;/font&gt;" style="rounded=0;whiteSpace=wrap;html=1;" vertex="1" parent="1">
          <mxGeometry x="154" y="134" width="130" height="60" as="geometry" />
        </mxCell>
        <mxCell id="SagK8S-FZXaCOz4RWenR-70" value="&lt;font style=&quot;font-size: 20px;&quot;&gt;0..*&lt;/font&gt;" style="text;html=1;align=center;verticalAlign=middle;whiteSpace=wrap;rounded=0;fontSize=13;" vertex="1" parent="1">
          <mxGeometry x="-10" y="264" width="35" height="30" as="geometry" />
        </mxCell>
        <mxCell id="SagK8S-FZXaCOz4RWenR-71" value="&lt;font style=&quot;font-size: 20px;&quot;&gt;0..*&lt;/font&gt;" style="text;html=1;align=center;verticalAlign=middle;whiteSpace=wrap;rounded=0;fontSize=13;" vertex="1" parent="1">
          <mxGeometry x="179" y="193" width="35" height="30" as="geometry" />
        </mxCell>
        <mxCell id="SagK8S-FZXaCOz4RWenR-72" value="&lt;span style=&quot;font-size: 20px;&quot;&gt;6..*&lt;/span&gt;" style="text;html=1;align=center;verticalAlign=middle;whiteSpace=wrap;rounded=0;fontSize=13;" vertex="1" parent="1">
          <mxGeometry x="-175" y="649" width="35" height="30" as="geometry" />
        </mxCell>
        <mxCell id="SagK8S-FZXaCOz4RWenR-73" style="edgeStyle=orthogonalEdgeStyle;rounded=0;orthogonalLoop=1;jettySize=auto;html=1;entryX=0.877;entryY=0.995;entryDx=0;entryDy=0;dashed=1;endArrow=classic;endFill=1;dashPattern=8 8;entryPerimeter=0;" edge="1" parent="1" source="SagK8S-FZXaCOz4RWenR-74" target="SagK8S-FZXaCOz4RWenR-26">
          <mxGeometry relative="1" as="geometry" />
        </mxCell>
        <mxCell id="RcEfNdTO0kGgHM_Gl29o-1" style="edgeStyle=orthogonalEdgeStyle;rounded=0;orthogonalLoop=1;jettySize=auto;html=1;entryX=1;entryY=0.5;entryDx=0;entryDy=0;endArrow=classic;endFill=1;exitX=0.5;exitY=0;exitDx=0;exitDy=0;" edge="1" parent="1" source="SagK8S-FZXaCOz4RWenR-74" target="SagK8S-FZXaCOz4RWenR-69">
          <mxGeometry relative="1" as="geometry">
            <Array as="points">
              <mxPoint x="492" y="164" />
            </Array>
            <mxPoint x="274" y="428" as="sourcePoint" />
            <mxPoint x="284" y="184" as="targetPoint" />
          </mxGeometry>
        </mxCell>
        <mxCell id="RcEfNdTO0kGgHM_Gl29o-2" value="&lt;font style=&quot;font-size: 16px;&quot;&gt;creates&lt;/font&gt;" style="edgeLabel;html=1;align=center;verticalAlign=middle;resizable=0;points=[];" connectable="0" vertex="1" parent="RcEfNdTO0kGgHM_Gl29o-1">
          <mxGeometry x="0.0588" y="-3" relative="1" as="geometry">
            <mxPoint x="15" y="93" as="offset" />
          </mxGeometry>
        </mxCell>
        <mxCell id="nuyOhPA4E1JzYJuZMhao-2" style="edgeStyle=orthogonalEdgeStyle;rounded=0;orthogonalLoop=1;jettySize=auto;html=1;exitX=1;exitY=0.5;exitDx=0;exitDy=0;startArrow=classic;startFill=1;endArrow=none;endFill=0;" edge="1" parent="1">
          <mxGeometry relative="1" as="geometry">
            <mxPoint x="358" y="76" as="targetPoint" />
            <mxPoint x="557" y="412" as="sourcePoint" />
            <Array as="points">
              <mxPoint x="591" y="412" />
              <mxPoint x="591" y="76" />
            </Array>
          </mxGeometry>
        </mxCell>
        <mxCell id="SagK8S-FZXaCOz4RWenR-74" value="&lt;font style=&quot;font-size: 17px;&quot;&gt;Admin&lt;/font&gt;" style="rounded=0;whiteSpace=wrap;html=1;" vertex="1" parent="1">
          <mxGeometry x="427" y="383" width="130" height="60" as="geometry" />
        </mxCell>
        <mxCell id="RcEfNdTO0kGgHM_Gl29o-3" value="&lt;font style=&quot;font-size: 20px;&quot;&gt;1&lt;/font&gt;" style="text;html=1;align=center;verticalAlign=middle;whiteSpace=wrap;rounded=0;fontSize=13;" vertex="1" parent="1">
          <mxGeometry x="484" y="356" width="35" height="30" as="geometry" />
        </mxCell>
        <mxCell id="RcEfNdTO0kGgHM_Gl29o-4" value="&lt;font style=&quot;font-size: 30px;&quot;&gt;*&lt;/font&gt;" style="text;html=1;align=center;verticalAlign=middle;whiteSpace=wrap;rounded=0;fontSize=13;" vertex="1" parent="1">
          <mxGeometry x="283" y="144" width="35" height="30" as="geometry" />
        </mxCell>
        <mxCell id="GMJEakWlRhoxqdBHSyki-2" value="" style="endArrow=none;html=1;rounded=0;" edge="1" parent="1">
          <mxGeometry width="50" height="50" relative="1" as="geometry">
            <mxPoint x="-524" y="-229" as="sourcePoint" />
            <mxPoint x="406" y="-229" as="targetPoint" />
          </mxGeometry>
        </mxCell>
        <mxCell id="GMJEakWlRhoxqdBHSyki-3" value="" style="endArrow=none;html=1;rounded=0;" edge="1" parent="1">
          <mxGeometry width="50" height="50" relative="1" as="geometry">
            <mxPoint x="-555" y="987" as="sourcePoint" />
            <mxPoint x="375" y="987" as="targetPoint" />
          </mxGeometry>
        </mxCell>
        <mxCell id="GMJEakWlRhoxqdBHSyki-4" value="" style="endArrow=none;html=1;rounded=0;" edge="1" parent="1">
          <mxGeometry width="50" height="50" relative="1" as="geometry">
            <mxPoint x="-1111" y="55" as="sourcePoint" />
            <mxPoint x="-1111" y="858" as="targetPoint" />
          </mxGeometry>
        </mxCell>
        <mxCell id="jUfTpJKPdLPgRhChKZlu-1" value="&lt;font style=&quot;font-size: 20px;&quot;&gt;1&lt;/font&gt;" style="text;html=1;align=center;verticalAlign=middle;whiteSpace=wrap;rounded=0;fontSize=13;" vertex="1" parent="1">
          <mxGeometry x="-231" y="363" width="35" height="30" as="geometry" />
        </mxCell>
        <mxCell id="MEc6MLY_YhdrfmXQtaSU-6" value="" style="edgeStyle=orthogonalEdgeStyle;orthogonalLoop=1;jettySize=auto;html=1;rounded=0;entryX=0.5;entryY=0;entryDx=0;entryDy=0;endArrow=none;endFill=0;" edge="1" parent="1" target="SagK8S-FZXaCOz4RWenR-15">
          <mxGeometry width="100" relative="1" as="geometry">
            <mxPoint x="-77" y="783" as="sourcePoint" />
            <mxPoint x="17" y="783" as="targetPoint" />
          </mxGeometry>
        </mxCell>
        <mxCell id="mExs0WxSLWpg3FDLOHm2-12" style="edgeStyle=orthogonalEdgeStyle;rounded=0;orthogonalLoop=1;jettySize=auto;html=1;entryX=0.75;entryY=0;entryDx=0;entryDy=0;exitX=0.191;exitY=1.05;exitDx=0;exitDy=0;exitPerimeter=0;startArrow=none;startFill=0;endArrow=classic;endFill=1;startSize=10;" edge="1" parent="1" source="mExs0WxSLWpg3FDLOHm2-2" target="SagK8S-FZXaCOz4RWenR-26">
          <mxGeometry relative="1" as="geometry" />
        </mxCell>
        <mxCell id="mExs0WxSLWpg3FDLOHm2-13" value="&lt;font style=&quot;font-size: 16px;&quot;&gt;stores&lt;/font&gt;" style="edgeLabel;html=1;align=center;verticalAlign=middle;resizable=0;points=[];" connectable="0" vertex="1" parent="mExs0WxSLWpg3FDLOHm2-12">
          <mxGeometry x="0.3696" y="2" relative="1" as="geometry">
            <mxPoint x="-3" y="-21" as="offset" />
          </mxGeometry>
        </mxCell>
        <mxCell id="hHu9i-z5qorxsOQjYAJi-1" style="edgeStyle=orthogonalEdgeStyle;rounded=0;orthogonalLoop=1;jettySize=auto;html=1;exitX=1;exitY=0.5;exitDx=0;exitDy=0;entryX=1;entryY=0.25;entryDx=0;entryDy=0;" edge="1" parent="1" source="mExs0WxSLWpg3FDLOHm2-2" target="SagK8S-FZXaCOz4RWenR-57">
          <mxGeometry relative="1" as="geometry">
            <Array as="points">
              <mxPoint x="358" y="76" />
              <mxPoint x="358" y="345" />
            </Array>
          </mxGeometry>
        </mxCell>
        <mxCell id="hHu9i-z5qorxsOQjYAJi-10" style="edgeStyle=orthogonalEdgeStyle;rounded=0;orthogonalLoop=1;jettySize=auto;html=1;dashed=1;dashPattern=8 8;startArrow=classic;startFill=1;endArrow=none;endFill=0;exitX=0.007;exitY=0.145;exitDx=0;exitDy=0;exitPerimeter=0;" edge="1" parent="1" source="mExs0WxSLWpg3FDLOHm2-2">
          <mxGeometry relative="1" as="geometry">
            <mxPoint x="-205" y="118" as="targetPoint" />
            <mxPoint x="163" y="96" as="sourcePoint" />
          </mxGeometry>
        </mxCell>
        <mxCell id="mExs0WxSLWpg3FDLOHm2-2" value="&lt;font style=&quot;font-size: 17px;&quot;&gt;Database&lt;/font&gt;" style="rounded=0;whiteSpace=wrap;html=1;" vertex="1" parent="1">
          <mxGeometry x="-67" y="46" width="130" height="60" as="geometry" />
        </mxCell>
        <mxCell id="mExs0WxSLWpg3FDLOHm2-8" value="&lt;font style=&quot;font-size: 20px;&quot;&gt;1&lt;/font&gt;" style="text;html=1;align=center;verticalAlign=middle;whiteSpace=wrap;rounded=0;fontSize=13;" vertex="1" parent="1">
          <mxGeometry x="-42" y="23" width="35" height="30" as="geometry" />
        </mxCell>
        <mxCell id="mExs0WxSLWpg3FDLOHm2-9" value="&lt;font style=&quot;font-size: 20px;&quot;&gt;1&lt;/font&gt;" style="text;html=1;align=center;verticalAlign=middle;whiteSpace=wrap;rounded=0;fontSize=13;" vertex="1" parent="1">
          <mxGeometry x="-484" y="456" width="35" height="30" as="geometry" />
        </mxCell>
        <mxCell id="jUfTpJKPdLPgRhChKZlu-3" value="&lt;font style=&quot;font-size: 20px;&quot;&gt;1&lt;/font&gt;" style="text;html=1;align=center;verticalAlign=middle;whiteSpace=wrap;rounded=0;fontSize=13;" vertex="1" parent="1">
          <mxGeometry x="-107" y="336" width="35" height="30" as="geometry" />
        </mxCell>
        <mxCell id="hHu9i-z5qorxsOQjYAJi-2" value="&lt;font style=&quot;font-size: 16px;&quot;&gt;stores&lt;/font&gt;" style="edgeLabel;html=1;align=center;verticalAlign=middle;resizable=0;points=[];" connectable="0" vertex="1" parent="1">
          <mxGeometry x="291.00164841840297" y="75.99753281927283" as="geometry" />
        </mxCell>
        <mxCell id="hHu9i-z5qorxsOQjYAJi-3" value="&lt;font style=&quot;font-size: 20px;&quot;&gt;1&lt;/font&gt;" style="text;html=1;align=center;verticalAlign=middle;whiteSpace=wrap;rounded=0;fontSize=13;" vertex="1" parent="1">
          <mxGeometry x="-68" y="110" width="35" height="30" as="geometry" />
        </mxCell>
        <mxCell id="hHu9i-z5qorxsOQjYAJi-4" value="&lt;font style=&quot;font-size: 20px;&quot;&gt;1&lt;/font&gt;" style="text;html=1;align=center;verticalAlign=middle;whiteSpace=wrap;rounded=0;fontSize=13;" vertex="1" parent="1">
          <mxGeometry x="60" y="50" width="35" height="30" as="geometry" />
        </mxCell>
        <mxCell id="hHu9i-z5qorxsOQjYAJi-11" style="edgeStyle=orthogonalEdgeStyle;rounded=0;orthogonalLoop=1;jettySize=auto;html=1;exitX=0.5;exitY=0;exitDx=0;exitDy=0;entryX=0;entryY=0.75;entryDx=0;entryDy=0;endArrow=none;endFill=0;startArrow=classic;startFill=1;" edge="1" parent="1" source="SagK8S-FZXaCOz4RWenR-19" target="mExs0WxSLWpg3FDLOHm2-2">
          <mxGeometry relative="1" as="geometry" />
        </mxCell>
        <mxCell id="hHu9i-z5qorxsOQjYAJi-13" value="&lt;font style=&quot;font-size: 16px;&quot;&gt;stores&lt;/font&gt;" style="edgeLabel;html=1;align=center;verticalAlign=middle;resizable=0;points=[];" connectable="0" vertex="1" parent="1">
          <mxGeometry x="-120.99835158159703" y="88.99753281927283" as="geometry" />
        </mxCell>
        <mxCell id="hHu9i-z5qorxsOQjYAJi-15" value="&lt;font style=&quot;font-size: 15px;&quot;&gt;1&lt;/font&gt;" style="text;html=1;align=center;verticalAlign=middle;whiteSpace=wrap;rounded=0;fontSize=15;" vertex="1" parent="1">
          <mxGeometry x="-175" y="110" width="35" height="30" as="geometry" />
        </mxCell>
        <mxCell id="hHu9i-z5qorxsOQjYAJi-16" value="&lt;font style=&quot;font-size: 15px;&quot;&gt;1&lt;/font&gt;" style="text;html=1;align=center;verticalAlign=middle;whiteSpace=wrap;rounded=0;fontSize=15;" vertex="1" parent="1">
          <mxGeometry x="-98" y="66" width="35" height="30" as="geometry" />
        </mxCell>
        <mxCell id="nuyOhPA4E1JzYJuZMhao-8" style="edgeStyle=orthogonalEdgeStyle;rounded=0;orthogonalLoop=1;jettySize=auto;html=1;exitX=0;exitY=0.5;exitDx=0;exitDy=0;dashed=1;dashPattern=8 8;endArrow=none;endFill=0;" edge="1" parent="1" source="hHu9i-z5qorxsOQjYAJi-17">
          <mxGeometry relative="1" as="geometry">
            <mxPoint x="10" y="-71" as="targetPoint" />
          </mxGeometry>
        </mxCell>
        <mxCell id="hHu9i-z5qorxsOQjYAJi-17" value="&lt;font style=&quot;font-size: 17px;&quot;&gt;Cache&lt;/font&gt;" style="rounded=0;whiteSpace=wrap;html=1;" vertex="1" parent="1">
          <mxGeometry x="116" y="-101" width="138" height="60" as="geometry" />
        </mxCell>
        <mxCell id="nuyOhPA4E1JzYJuZMhao-6" style="edgeStyle=orthogonalEdgeStyle;rounded=0;orthogonalLoop=1;jettySize=auto;html=1;exitX=1;exitY=0.5;exitDx=0;exitDy=0;dashed=1;dashPattern=8 8;entryX=0.61;entryY=0.011;entryDx=0;entryDy=0;entryPerimeter=0;" edge="1" parent="1" target="mExs0WxSLWpg3FDLOHm2-2">
          <mxGeometry relative="1" as="geometry">
            <mxPoint x="-138.5" y="-71" as="sourcePoint" />
            <mxPoint x="9" y="40" as="targetPoint" />
            <Array as="points">
              <mxPoint x="12" y="-71" />
              <mxPoint x="12" y="40" />
              <mxPoint x="12" y="40" />
            </Array>
          </mxGeometry>
        </mxCell>
        <mxCell id="nuyOhPA4E1JzYJuZMhao-1" value="&lt;font style=&quot;font-size: 17px;&quot;&gt;SessionManager&lt;/font&gt;" style="rounded=0;whiteSpace=wrap;html=1;" vertex="1" parent="1">
          <mxGeometry x="-353" y="-100" width="207" height="60" as="geometry" />
        </mxCell>
        <mxCell id="nuyOhPA4E1JzYJuZMhao-4" value="&lt;font style=&quot;font-size: 20px;&quot;&gt;1&lt;/font&gt;" style="text;html=1;align=center;verticalAlign=middle;whiteSpace=wrap;rounded=0;fontSize=13;" vertex="1" parent="1">
          <mxGeometry x="551" y="410" width="35" height="30" as="geometry" />
        </mxCell>
        <mxCell id="nuyOhPA4E1JzYJuZMhao-10" value="&lt;font style=&quot;font-size: 20px;&quot;&gt;0..*&lt;/font&gt;" style="text;html=1;align=center;verticalAlign=middle;whiteSpace=wrap;rounded=0;fontSize=13;" vertex="1" parent="1">
          <mxGeometry x="276.5" y="316" width="35" height="30" as="geometry" />
        </mxCell>
        <mxCell id="nuyOhPA4E1JzYJuZMhao-11" value="&lt;font style=&quot;font-size: 20px;&quot;&gt;0..*&lt;/font&gt;" style="text;html=1;align=center;verticalAlign=middle;whiteSpace=wrap;rounded=0;fontSize=13;" vertex="1" parent="1">
          <mxGeometry x="-77" y="245" width="35" height="30" as="geometry" />
        </mxCell>
      </root>
    </mxGraphModel>
  </diagram>
  <diagram name="Copy of Page-1" id="nfBaxonyDdX1sduJebhD">
    <mxGraphModel grid="1" page="1" gridSize="1" guides="1" tooltips="1" connect="1" arrows="1" fold="1" pageScale="1" pageWidth="827" pageHeight="1169" math="0" shadow="0">
      <root>
        <mxCell id="nYlhv1HcqgW-4Q8vFlGa-0" />
        <mxCell id="nYlhv1HcqgW-4Q8vFlGa-1" parent="nYlhv1HcqgW-4Q8vFlGa-0" />
        <mxCell id="nYlhv1HcqgW-4Q8vFlGa-2" style="edgeStyle=orthogonalEdgeStyle;rounded=0;orthogonalLoop=1;jettySize=auto;html=1;exitX=0.5;exitY=1;exitDx=0;exitDy=0;entryX=0.5;entryY=0;entryDx=0;entryDy=0;endArrow=block;endFill=1;dashed=1;dashPattern=8 8;" edge="1" parent="nYlhv1HcqgW-4Q8vFlGa-1" source="nYlhv1HcqgW-4Q8vFlGa-7" target="nYlhv1HcqgW-4Q8vFlGa-13">
          <mxGeometry relative="1" as="geometry" />
        </mxCell>
        <mxCell id="nYlhv1HcqgW-4Q8vFlGa-3" value="" style="edgeStyle=orthogonalEdgeStyle;rounded=0;orthogonalLoop=1;jettySize=auto;html=1;endArrow=block;endFill=1;" edge="1" parent="nYlhv1HcqgW-4Q8vFlGa-1" source="nYlhv1HcqgW-4Q8vFlGa-7" target="nYlhv1HcqgW-4Q8vFlGa-27">
          <mxGeometry relative="1" as="geometry">
            <Array as="points">
              <mxPoint x="522" y="605" />
              <mxPoint x="522" y="605" />
            </Array>
          </mxGeometry>
        </mxCell>
        <mxCell id="nYlhv1HcqgW-4Q8vFlGa-4" value="&lt;font style=&quot;font-size: 16px;&quot;&gt;logs into&lt;/font&gt;" style="edgeLabel;html=1;align=center;verticalAlign=middle;resizable=0;points=[];" connectable="0" vertex="1" parent="nYlhv1HcqgW-4Q8vFlGa-3">
          <mxGeometry x="0.0952" relative="1" as="geometry">
            <mxPoint y="25" as="offset" />
          </mxGeometry>
        </mxCell>
        <mxCell id="nYlhv1HcqgW-4Q8vFlGa-5" style="edgeStyle=orthogonalEdgeStyle;rounded=0;orthogonalLoop=1;jettySize=auto;html=1;exitX=1;exitY=0.5;exitDx=0;exitDy=0;entryX=0;entryY=0.5;entryDx=0;entryDy=0;endArrow=block;endFill=1;" edge="1" parent="nYlhv1HcqgW-4Q8vFlGa-1" source="nYlhv1HcqgW-4Q8vFlGa-7" target="nYlhv1HcqgW-4Q8vFlGa-14">
          <mxGeometry relative="1" as="geometry" />
        </mxCell>
        <mxCell id="nYlhv1HcqgW-4Q8vFlGa-6" value="&lt;font style=&quot;font-size: 16px;&quot;&gt;makes&lt;/font&gt;" style="edgeLabel;html=1;align=center;verticalAlign=middle;resizable=0;points=[];" connectable="0" vertex="1" parent="nYlhv1HcqgW-4Q8vFlGa-5">
          <mxGeometry x="-0.0199" y="-1" relative="1" as="geometry">
            <mxPoint as="offset" />
          </mxGeometry>
        </mxCell>
        <mxCell id="nYlhv1HcqgW-4Q8vFlGa-7" value="&lt;font style=&quot;font-size: 17px;&quot;&gt;Player&lt;/font&gt;" style="rounded=0;whiteSpace=wrap;html=1;" vertex="1" parent="nYlhv1HcqgW-4Q8vFlGa-1">
          <mxGeometry x="460" y="644" width="130" height="60" as="geometry" />
        </mxCell>
        <mxCell id="nYlhv1HcqgW-4Q8vFlGa-8" style="edgeStyle=orthogonalEdgeStyle;rounded=0;orthogonalLoop=1;jettySize=auto;html=1;exitX=1;exitY=0.5;exitDx=0;exitDy=0;entryX=0;entryY=0.5;entryDx=0;entryDy=0;endArrow=block;endFill=1;" edge="1" parent="nYlhv1HcqgW-4Q8vFlGa-1" source="nYlhv1HcqgW-4Q8vFlGa-13" target="nYlhv1HcqgW-4Q8vFlGa-21">
          <mxGeometry relative="1" as="geometry">
            <Array as="points">
              <mxPoint x="712" y="837" />
              <mxPoint x="712" y="897" />
            </Array>
          </mxGeometry>
        </mxCell>
        <mxCell id="nYlhv1HcqgW-4Q8vFlGa-9" value="&lt;font style=&quot;font-size: 16px;&quot;&gt;solved by&lt;/font&gt;" style="edgeLabel;html=1;align=center;verticalAlign=middle;resizable=0;points=[];" connectable="0" vertex="1" parent="nYlhv1HcqgW-4Q8vFlGa-8">
          <mxGeometry x="-0.0143" relative="1" as="geometry">
            <mxPoint x="-55" y="-27" as="offset" />
          </mxGeometry>
        </mxCell>
        <mxCell id="nYlhv1HcqgW-4Q8vFlGa-10" value="" style="edgeStyle=orthogonalEdgeStyle;rounded=0;orthogonalLoop=1;jettySize=auto;html=1;exitX=0.25;exitY=1;exitDx=0;exitDy=0;entryX=0.5;entryY=0;entryDx=0;entryDy=0;endArrow=block;endFill=0;startSize=7;endSize=10;dashed=1;dashPattern=8 8;" edge="1" parent="nYlhv1HcqgW-4Q8vFlGa-1" source="nYlhv1HcqgW-4Q8vFlGa-13" target="nYlhv1HcqgW-4Q8vFlGa-54">
          <mxGeometry relative="1" as="geometry">
            <Array as="points">
              <mxPoint x="493" y="919" />
              <mxPoint x="-60" y="919" />
            </Array>
            <mxPoint x="492.5" y="848" as="sourcePoint" />
            <mxPoint x="-60" y="957" as="targetPoint" />
          </mxGeometry>
        </mxCell>
        <mxCell id="nYlhv1HcqgW-4Q8vFlGa-11" style="edgeStyle=orthogonalEdgeStyle;rounded=0;orthogonalLoop=1;jettySize=auto;html=1;exitX=0.056;exitY=0.993;exitDx=0;exitDy=0;entryX=1;entryY=0.5;entryDx=0;entryDy=0;endArrow=block;endFill=1;exitPerimeter=0;" edge="1" parent="nYlhv1HcqgW-4Q8vFlGa-1" source="nYlhv1HcqgW-4Q8vFlGa-13" target="nYlhv1HcqgW-4Q8vFlGa-66">
          <mxGeometry relative="1" as="geometry">
            <Array as="points">
              <mxPoint x="467" y="891" />
              <mxPoint x="-243" y="891" />
            </Array>
          </mxGeometry>
        </mxCell>
        <mxCell id="nYlhv1HcqgW-4Q8vFlGa-12" value="&lt;font style=&quot;font-size: 16px;&quot;&gt;defined by&lt;/font&gt;" style="edgeLabel;html=1;align=center;verticalAlign=middle;resizable=0;points=[];" connectable="0" vertex="1" parent="nYlhv1HcqgW-4Q8vFlGa-11">
          <mxGeometry x="0.0209" relative="1" as="geometry">
            <mxPoint as="offset" />
          </mxGeometry>
        </mxCell>
        <mxCell id="nYlhv1HcqgW-4Q8vFlGa-13" value="&lt;span style=&quot;font-size: 17px;&quot;&gt;&lt;i&gt;Puzzle&lt;/i&gt;&lt;/span&gt;" style="rounded=0;whiteSpace=wrap;html=1;" vertex="1" parent="nYlhv1HcqgW-4Q8vFlGa-1">
          <mxGeometry x="460" y="807" width="130" height="60" as="geometry" />
        </mxCell>
        <mxCell id="nYlhv1HcqgW-4Q8vFlGa-14" value="&lt;font style=&quot;font-size: 17px;&quot;&gt;Move&lt;/font&gt;" style="rounded=0;whiteSpace=wrap;html=1;" vertex="1" parent="nYlhv1HcqgW-4Q8vFlGa-1">
          <mxGeometry x="825" y="645" width="130" height="60" as="geometry" />
        </mxCell>
        <mxCell id="nYlhv1HcqgW-4Q8vFlGa-15" value="&lt;span style=&quot;font-size: 17px;&quot;&gt;WordPuzzle&lt;/span&gt;" style="rounded=0;whiteSpace=wrap;html=1;" vertex="1" parent="nYlhv1HcqgW-4Q8vFlGa-1">
          <mxGeometry x="218" y="964" width="130" height="60" as="geometry" />
        </mxCell>
        <mxCell id="nYlhv1HcqgW-4Q8vFlGa-16" value="&lt;span style=&quot;font-size: 17px;&quot;&gt;Math&lt;/span&gt;&lt;span style=&quot;font-size: 17px;&quot;&gt;Puzzle&lt;/span&gt;" style="rounded=0;whiteSpace=wrap;html=1;" vertex="1" parent="nYlhv1HcqgW-4Q8vFlGa-1">
          <mxGeometry x="708" y="964" width="130" height="60" as="geometry" />
        </mxCell>
        <mxCell id="nYlhv1HcqgW-4Q8vFlGa-17" value="&lt;span style=&quot;font-size: 17px;&quot;&gt;Logic&lt;/span&gt;&lt;span style=&quot;font-size: 17px;&quot;&gt;Puzzle&lt;/span&gt;" style="rounded=0;whiteSpace=wrap;html=1;" vertex="1" parent="nYlhv1HcqgW-4Q8vFlGa-1">
          <mxGeometry x="538" y="964" width="130" height="60" as="geometry" />
        </mxCell>
        <mxCell id="nYlhv1HcqgW-4Q8vFlGa-18" value="&lt;span style=&quot;font-size: 17px;&quot;&gt;SpatialPuzzle&lt;/span&gt;" style="rounded=0;whiteSpace=wrap;html=1;" vertex="1" parent="nYlhv1HcqgW-4Q8vFlGa-1">
          <mxGeometry x="378" y="964" width="130" height="60" as="geometry" />
        </mxCell>
        <mxCell id="nYlhv1HcqgW-4Q8vFlGa-19" style="edgeStyle=orthogonalEdgeStyle;rounded=0;orthogonalLoop=1;jettySize=auto;html=1;exitX=1;exitY=0.5;exitDx=0;exitDy=0;entryX=0;entryY=0.5;entryDx=0;entryDy=0;dashed=1;dashPattern=8 8;endArrow=block;endFill=1;" edge="1" parent="nYlhv1HcqgW-4Q8vFlGa-1" source="nYlhv1HcqgW-4Q8vFlGa-20" target="nYlhv1HcqgW-4Q8vFlGa-70">
          <mxGeometry relative="1" as="geometry" />
        </mxCell>
        <mxCell id="nYlhv1HcqgW-4Q8vFlGa-20" value="&lt;font style=&quot;font-size: 17px;&quot;&gt;Leaderboard&lt;/font&gt;" style="rounded=0;whiteSpace=wrap;html=1;" vertex="1" parent="nYlhv1HcqgW-4Q8vFlGa-1">
          <mxGeometry x="410" y="291" width="130" height="60" as="geometry" />
        </mxCell>
        <mxCell id="nYlhv1HcqgW-4Q8vFlGa-21" value="&lt;span style=&quot;font-size: 17px;&quot;&gt;Hint&lt;/span&gt;" style="rounded=0;whiteSpace=wrap;html=1;" vertex="1" parent="nYlhv1HcqgW-4Q8vFlGa-1">
          <mxGeometry x="832" y="867" width="130" height="60" as="geometry" />
        </mxCell>
        <mxCell id="nYlhv1HcqgW-4Q8vFlGa-22" style="edgeStyle=orthogonalEdgeStyle;rounded=0;orthogonalLoop=1;jettySize=auto;html=1;exitX=1;exitY=0.5;exitDx=0;exitDy=0;entryX=0;entryY=0.5;entryDx=0;entryDy=0;endArrow=block;endFill=1;startArrow=diamond;startFill=1;startSize=10;" edge="1" parent="nYlhv1HcqgW-4Q8vFlGa-1" source="nYlhv1HcqgW-4Q8vFlGa-27" target="nYlhv1HcqgW-4Q8vFlGa-58">
          <mxGeometry relative="1" as="geometry" />
        </mxCell>
        <mxCell id="nYlhv1HcqgW-4Q8vFlGa-23" value="&lt;font style=&quot;font-size: 16px;&quot;&gt;has&lt;/font&gt;" style="edgeLabel;html=1;align=center;verticalAlign=middle;resizable=0;points=[];" connectable="0" vertex="1" parent="nYlhv1HcqgW-4Q8vFlGa-22">
          <mxGeometry x="-0.0442" y="-3" relative="1" as="geometry">
            <mxPoint x="-11" y="-3" as="offset" />
          </mxGeometry>
        </mxCell>
        <mxCell id="nYlhv1HcqgW-4Q8vFlGa-24" value="" style="edgeStyle=orthogonalEdgeStyle;rounded=0;orthogonalLoop=1;jettySize=auto;html=1;dashed=1;dashPattern=8 8;endArrow=none;endFill=0;startArrow=block;startFill=1;entryX=0.5;entryY=1;entryDx=0;entryDy=0;exitX=0.086;exitY=0.007;exitDx=0;exitDy=0;exitPerimeter=0;" edge="1" parent="nYlhv1HcqgW-4Q8vFlGa-1" source="nYlhv1HcqgW-4Q8vFlGa-27">
          <mxGeometry relative="1" as="geometry">
            <mxPoint x="471" y="430" as="sourcePoint" />
            <mxPoint x="470" y="352" as="targetPoint" />
            <Array as="points">
              <mxPoint x="470" y="392" />
            </Array>
          </mxGeometry>
        </mxCell>
        <mxCell id="nYlhv1HcqgW-4Q8vFlGa-25" style="edgeStyle=orthogonalEdgeStyle;rounded=0;orthogonalLoop=1;jettySize=auto;html=1;exitX=0.75;exitY=0;exitDx=0;exitDy=0;entryX=0.5;entryY=1;entryDx=0;entryDy=0;endArrow=block;endFill=1;" edge="1" parent="nYlhv1HcqgW-4Q8vFlGa-1" source="nYlhv1HcqgW-4Q8vFlGa-27" target="nYlhv1HcqgW-4Q8vFlGa-70">
          <mxGeometry relative="1" as="geometry">
            <mxPoint x="821" y="364" as="targetPoint" />
          </mxGeometry>
        </mxCell>
        <mxCell id="nYlhv1HcqgW-4Q8vFlGa-26" value="&lt;font style=&quot;font-size: 16px;&quot;&gt;unlocks&lt;/font&gt;" style="edgeLabel;html=1;align=center;verticalAlign=middle;resizable=0;points=[];" connectable="0" vertex="1" parent="nYlhv1HcqgW-4Q8vFlGa-25">
          <mxGeometry x="-0.194" y="-2" relative="1" as="geometry">
            <mxPoint x="10" y="-2" as="offset" />
          </mxGeometry>
        </mxCell>
        <mxCell id="nYlhv1HcqgW-4Q8vFlGa-27" value="&lt;font style=&quot;font-size: 17px;&quot;&gt;AccountProfile&lt;/font&gt;" style="rounded=0;whiteSpace=wrap;html=1;" vertex="1" parent="nYlhv1HcqgW-4Q8vFlGa-1">
          <mxGeometry x="459" y="430" width="130" height="60" as="geometry" />
        </mxCell>
        <mxCell id="nYlhv1HcqgW-4Q8vFlGa-28" value="&lt;font style=&quot;font-size: 16px;&quot;&gt;played by&lt;/font&gt;" style="edgeStyle=orthogonalEdgeStyle;rounded=0;orthogonalLoop=1;jettySize=auto;html=1;endArrow=block;endFill=1;startArrow=diamond;startFill=1;endSize=6;startSize=10;" edge="1" parent="nYlhv1HcqgW-4Q8vFlGa-1" source="nYlhv1HcqgW-4Q8vFlGa-35" target="nYlhv1HcqgW-4Q8vFlGa-7">
          <mxGeometry relative="1" as="geometry" />
        </mxCell>
        <mxCell id="nYlhv1HcqgW-4Q8vFlGa-29" style="edgeStyle=orthogonalEdgeStyle;rounded=0;orthogonalLoop=1;jettySize=auto;html=1;exitX=0.5;exitY=1;exitDx=0;exitDy=0;entryX=0;entryY=0.5;entryDx=0;entryDy=0;endArrow=block;endFill=1;startArrow=diamond;startFill=1;startSize=10;" edge="1" parent="nYlhv1HcqgW-4Q8vFlGa-1" source="nYlhv1HcqgW-4Q8vFlGa-35" target="nYlhv1HcqgW-4Q8vFlGa-13">
          <mxGeometry relative="1" as="geometry" />
        </mxCell>
        <mxCell id="nYlhv1HcqgW-4Q8vFlGa-30" value="&lt;font style=&quot;font-size: 16px;&quot;&gt;offers&lt;/font&gt;" style="edgeLabel;html=1;align=center;verticalAlign=middle;resizable=0;points=[];" connectable="0" vertex="1" parent="nYlhv1HcqgW-4Q8vFlGa-29">
          <mxGeometry x="0.1445" y="-1" relative="1" as="geometry">
            <mxPoint y="-1" as="offset" />
          </mxGeometry>
        </mxCell>
        <mxCell id="nYlhv1HcqgW-4Q8vFlGa-31" value="" style="edgeStyle=orthogonalEdgeStyle;rounded=0;orthogonalLoop=1;jettySize=auto;html=1;endArrow=none;endFill=0;startArrow=block;startFill=1;" edge="1" parent="nYlhv1HcqgW-4Q8vFlGa-1" source="nYlhv1HcqgW-4Q8vFlGa-35" target="nYlhv1HcqgW-4Q8vFlGa-36">
          <mxGeometry relative="1" as="geometry" />
        </mxCell>
        <mxCell id="nYlhv1HcqgW-4Q8vFlGa-32" value="&lt;font style=&quot;font-size: 16px;&quot;&gt;displays&lt;/font&gt;" style="edgeLabel;html=1;align=center;verticalAlign=middle;resizable=0;points=[];" connectable="0" vertex="1" parent="nYlhv1HcqgW-4Q8vFlGa-31">
          <mxGeometry x="-0.039" relative="1" as="geometry">
            <mxPoint as="offset" />
          </mxGeometry>
        </mxCell>
        <mxCell id="nYlhv1HcqgW-4Q8vFlGa-33" style="edgeStyle=orthogonalEdgeStyle;rounded=0;orthogonalLoop=1;jettySize=auto;html=1;exitX=0.5;exitY=0;exitDx=0;exitDy=0;entryX=0;entryY=0.5;entryDx=0;entryDy=0;startArrow=diamond;startFill=1;startSize=10;endArrow=block;endFill=1;" edge="1" parent="nYlhv1HcqgW-4Q8vFlGa-1" source="nYlhv1HcqgW-4Q8vFlGa-35" target="nYlhv1HcqgW-4Q8vFlGa-20">
          <mxGeometry relative="1" as="geometry">
            <Array as="points">
              <mxPoint x="196" y="321" />
            </Array>
          </mxGeometry>
        </mxCell>
        <mxCell id="nYlhv1HcqgW-4Q8vFlGa-34" value="&lt;span style=&quot;font-size: 16px;&quot;&gt;consists of&lt;/span&gt;" style="edgeLabel;html=1;align=center;verticalAlign=middle;resizable=0;points=[];" connectable="0" vertex="1" parent="nYlhv1HcqgW-4Q8vFlGa-33">
          <mxGeometry x="0.2135" y="2" relative="1" as="geometry">
            <mxPoint x="-3" y="81" as="offset" />
          </mxGeometry>
        </mxCell>
        <mxCell id="nYlhv1HcqgW-4Q8vFlGa-35" value="&lt;font style=&quot;font-size: 17px;&quot;&gt;Game&lt;/font&gt;" style="rounded=0;whiteSpace=wrap;html=1;" vertex="1" parent="nYlhv1HcqgW-4Q8vFlGa-1">
          <mxGeometry x="131" y="644" width="130" height="60" as="geometry" />
        </mxCell>
        <mxCell id="nYlhv1HcqgW-4Q8vFlGa-36" value="&lt;font style=&quot;font-size: 17px;&quot;&gt;Display&lt;/font&gt;" style="rounded=0;whiteSpace=wrap;html=1;" vertex="1" parent="nYlhv1HcqgW-4Q8vFlGa-1">
          <mxGeometry x="-198" y="645" width="130" height="60" as="geometry" />
        </mxCell>
        <mxCell id="nYlhv1HcqgW-4Q8vFlGa-37" value="" style="group" connectable="0" vertex="1" parent="nYlhv1HcqgW-4Q8vFlGa-1">
          <mxGeometry x="283" y="939" width="490" as="geometry" />
        </mxCell>
        <mxCell id="nYlhv1HcqgW-4Q8vFlGa-38" style="edgeStyle=orthogonalEdgeStyle;rounded=0;orthogonalLoop=1;jettySize=auto;html=1;exitX=0.5;exitY=0;exitDx=0;exitDy=0;endArrow=none;endFill=0;" edge="1" parent="nYlhv1HcqgW-4Q8vFlGa-37" source="nYlhv1HcqgW-4Q8vFlGa-15">
          <mxGeometry relative="1" as="geometry">
            <mxPoint x="160" as="targetPoint" />
            <Array as="points">
              <mxPoint />
            </Array>
          </mxGeometry>
        </mxCell>
        <mxCell id="nYlhv1HcqgW-4Q8vFlGa-39" style="edgeStyle=orthogonalEdgeStyle;rounded=0;orthogonalLoop=1;jettySize=auto;html=1;exitX=0.5;exitY=0;exitDx=0;exitDy=0;endArrow=none;endFill=0;" edge="1" parent="nYlhv1HcqgW-4Q8vFlGa-37" source="nYlhv1HcqgW-4Q8vFlGa-16">
          <mxGeometry relative="1" as="geometry">
            <mxPoint x="320" as="targetPoint" />
            <Array as="points">
              <mxPoint x="490" />
            </Array>
          </mxGeometry>
        </mxCell>
        <mxCell id="nYlhv1HcqgW-4Q8vFlGa-40" style="edgeStyle=orthogonalEdgeStyle;rounded=0;orthogonalLoop=1;jettySize=auto;html=1;exitX=0.5;exitY=0;exitDx=0;exitDy=0;endArrow=none;endFill=0;" edge="1" parent="nYlhv1HcqgW-4Q8vFlGa-37" source="nYlhv1HcqgW-4Q8vFlGa-17">
          <mxGeometry relative="1" as="geometry">
            <mxPoint x="240" as="targetPoint" />
            <Array as="points">
              <mxPoint x="320" />
              <mxPoint x="240" />
            </Array>
          </mxGeometry>
        </mxCell>
        <mxCell id="nYlhv1HcqgW-4Q8vFlGa-41" style="edgeStyle=orthogonalEdgeStyle;rounded=0;orthogonalLoop=1;jettySize=auto;html=1;exitX=0.5;exitY=0;exitDx=0;exitDy=0;endArrow=block;endFill=0;endSize=10;" edge="1" parent="nYlhv1HcqgW-4Q8vFlGa-37" source="nYlhv1HcqgW-4Q8vFlGa-18" target="nYlhv1HcqgW-4Q8vFlGa-13">
          <mxGeometry relative="1" as="geometry">
            <Array as="points">
              <mxPoint x="160" />
              <mxPoint x="241" />
            </Array>
          </mxGeometry>
        </mxCell>
        <mxCell id="nYlhv1HcqgW-4Q8vFlGa-42" value="&lt;font style=&quot;font-size: 20px;&quot;&gt;1&lt;/font&gt;" style="text;html=1;align=center;verticalAlign=middle;whiteSpace=wrap;rounded=0;fontSize=13;" vertex="1" parent="nYlhv1HcqgW-4Q8vFlGa-1">
          <mxGeometry x="379" y="291" width="35" height="30" as="geometry" />
        </mxCell>
        <mxCell id="nYlhv1HcqgW-4Q8vFlGa-43" value="&lt;font style=&quot;font-size: 20px;&quot;&gt;1&lt;/font&gt;" style="text;html=1;align=center;verticalAlign=middle;whiteSpace=wrap;rounded=0;fontSize=13;" vertex="1" parent="nYlhv1HcqgW-4Q8vFlGa-1">
          <mxGeometry x="164" y="618" width="35" height="30" as="geometry" />
        </mxCell>
        <mxCell id="nYlhv1HcqgW-4Q8vFlGa-44" value="&lt;font style=&quot;font-size: 20px;&quot;&gt;1&lt;/font&gt;" style="text;html=1;align=center;verticalAlign=middle;whiteSpace=wrap;rounded=0;fontSize=13;" vertex="1" parent="nYlhv1HcqgW-4Q8vFlGa-1">
          <mxGeometry x="261" y="642" width="35" height="30" as="geometry" />
        </mxCell>
        <mxCell id="nYlhv1HcqgW-4Q8vFlGa-45" value="&lt;font style=&quot;font-size: 30px;&quot;&gt;*&lt;/font&gt;" style="text;html=1;align=center;verticalAlign=middle;whiteSpace=wrap;rounded=0;fontSize=13;" vertex="1" parent="nYlhv1HcqgW-4Q8vFlGa-1">
          <mxGeometry x="427" y="647" width="35" height="30" as="geometry" />
        </mxCell>
        <mxCell id="nYlhv1HcqgW-4Q8vFlGa-46" value="&lt;font style=&quot;font-size: 20px;&quot;&gt;1&lt;/font&gt;" style="text;html=1;align=center;verticalAlign=middle;whiteSpace=wrap;rounded=0;fontSize=13;" vertex="1" parent="nYlhv1HcqgW-4Q8vFlGa-1">
          <mxGeometry x="95" y="644" width="35" height="30" as="geometry" />
        </mxCell>
        <mxCell id="nYlhv1HcqgW-4Q8vFlGa-47" value="&lt;font style=&quot;font-size: 20px;&quot;&gt;1&lt;/font&gt;" style="text;html=1;align=center;verticalAlign=middle;whiteSpace=wrap;rounded=0;fontSize=13;" vertex="1" parent="nYlhv1HcqgW-4Q8vFlGa-1">
          <mxGeometry x="-72" y="647" width="35" height="30" as="geometry" />
        </mxCell>
        <mxCell id="nYlhv1HcqgW-4Q8vFlGa-48" value="&lt;font style=&quot;font-size: 20px;&quot;&gt;1&lt;/font&gt;" style="text;html=1;align=center;verticalAlign=middle;whiteSpace=wrap;rounded=0;fontSize=13;" vertex="1" parent="nYlhv1HcqgW-4Q8vFlGa-1">
          <mxGeometry x="195" y="707" width="35" height="30" as="geometry" />
        </mxCell>
        <mxCell id="nYlhv1HcqgW-4Q8vFlGa-49" value="&lt;font style=&quot;font-size: 20px;&quot;&gt;1&lt;/font&gt;" style="text;html=1;align=center;verticalAlign=middle;whiteSpace=wrap;rounded=0;fontSize=13;" vertex="1" parent="nYlhv1HcqgW-4Q8vFlGa-1">
          <mxGeometry x="589" y="645" width="35" height="30" as="geometry" />
        </mxCell>
        <mxCell id="nYlhv1HcqgW-4Q8vFlGa-50" value="&lt;font style=&quot;font-size: 30px;&quot;&gt;*&lt;/font&gt;" style="text;html=1;align=center;verticalAlign=middle;whiteSpace=wrap;rounded=0;fontSize=13;" vertex="1" parent="nYlhv1HcqgW-4Q8vFlGa-1">
          <mxGeometry x="790" y="653" width="35" height="30" as="geometry" />
        </mxCell>
        <mxCell id="nYlhv1HcqgW-4Q8vFlGa-51" value="&lt;font style=&quot;font-size: 20px;&quot;&gt;1&lt;/font&gt;" style="text;html=1;align=center;verticalAlign=middle;whiteSpace=wrap;rounded=0;fontSize=13;" vertex="1" parent="nYlhv1HcqgW-4Q8vFlGa-1">
          <mxGeometry x="585.5" y="808" width="35" height="30" as="geometry" />
        </mxCell>
        <mxCell id="nYlhv1HcqgW-4Q8vFlGa-52" value="&lt;font style=&quot;font-size: 20px;&quot;&gt;1&lt;/font&gt;" style="text;html=1;align=center;verticalAlign=middle;whiteSpace=wrap;rounded=0;fontSize=13;" vertex="1" parent="nYlhv1HcqgW-4Q8vFlGa-1">
          <mxGeometry x="492" y="615" width="35" height="30" as="geometry" />
        </mxCell>
        <mxCell id="nYlhv1HcqgW-4Q8vFlGa-53" value="&lt;font style=&quot;font-size: 30px;&quot;&gt;*&lt;/font&gt;" style="text;html=1;align=center;verticalAlign=middle;whiteSpace=wrap;rounded=0;fontSize=13;" vertex="1" parent="nYlhv1HcqgW-4Q8vFlGa-1">
          <mxGeometry x="493" y="501" width="35" height="30" as="geometry" />
        </mxCell>
        <mxCell id="nYlhv1HcqgW-4Q8vFlGa-54" value="&lt;div&gt;&lt;span style=&quot;font-size: 17px;&quot;&gt;&amp;lt;&amp;lt;interface&amp;gt;&amp;gt;&lt;/span&gt;&lt;/div&gt;&lt;span style=&quot;font-size: 17px;&quot;&gt;Timer&lt;/span&gt;" style="rounded=0;whiteSpace=wrap;html=1;" vertex="1" parent="nYlhv1HcqgW-4Q8vFlGa-1">
          <mxGeometry x="-125" y="976" width="130" height="60" as="geometry" />
        </mxCell>
        <mxCell id="nYlhv1HcqgW-4Q8vFlGa-55" style="edgeStyle=orthogonalEdgeStyle;rounded=0;orthogonalLoop=1;jettySize=auto;html=1;exitX=0.5;exitY=1;exitDx=0;exitDy=0;endArrow=none;endFill=0;startArrow=block;startFill=1;" edge="1" parent="nYlhv1HcqgW-4Q8vFlGa-1" source="nYlhv1HcqgW-4Q8vFlGa-56">
          <mxGeometry relative="1" as="geometry">
            <mxPoint x="522" y="535" as="targetPoint" />
            <Array as="points">
              <mxPoint x="332" y="545" />
              <mxPoint x="522" y="545" />
            </Array>
          </mxGeometry>
        </mxCell>
        <mxCell id="nYlhv1HcqgW-4Q8vFlGa-56" value="&lt;font style=&quot;font-size: 17px;&quot;&gt;GuestProfile&lt;/font&gt;" style="rounded=0;whiteSpace=wrap;html=1;" vertex="1" parent="nYlhv1HcqgW-4Q8vFlGa-1">
          <mxGeometry x="267" y="430" width="130" height="60" as="geometry" />
        </mxCell>
        <mxCell id="nYlhv1HcqgW-4Q8vFlGa-57" value="&lt;font style=&quot;font-size: 30px;&quot;&gt;*&lt;/font&gt;" style="text;html=1;align=center;verticalAlign=middle;whiteSpace=wrap;rounded=0;fontSize=13;" vertex="1" parent="nYlhv1HcqgW-4Q8vFlGa-1">
          <mxGeometry x="296" y="495" width="35" height="30" as="geometry" />
        </mxCell>
        <mxCell id="nYlhv1HcqgW-4Q8vFlGa-58" value="&lt;font style=&quot;font-size: 17px;&quot;&gt;SavedProgress&lt;/font&gt;" style="rounded=0;whiteSpace=wrap;html=1;" vertex="1" parent="nYlhv1HcqgW-4Q8vFlGa-1">
          <mxGeometry x="741" y="430" width="130" height="60" as="geometry" />
        </mxCell>
        <mxCell id="nYlhv1HcqgW-4Q8vFlGa-59" value="&lt;font style=&quot;font-size: 20px;&quot;&gt;1&lt;/font&gt;" style="text;html=1;align=center;verticalAlign=middle;whiteSpace=wrap;rounded=0;fontSize=13;" vertex="1" parent="nYlhv1HcqgW-4Q8vFlGa-1">
          <mxGeometry x="580" y="430" width="35" height="30" as="geometry" />
        </mxCell>
        <mxCell id="nYlhv1HcqgW-4Q8vFlGa-60" value="&lt;font style=&quot;font-size: 20px;&quot;&gt;0..4&lt;/font&gt;" style="text;html=1;align=center;verticalAlign=middle;whiteSpace=wrap;rounded=0;fontSize=13;" vertex="1" parent="nYlhv1HcqgW-4Q8vFlGa-1">
          <mxGeometry x="700" y="430" width="35" height="30" as="geometry" />
        </mxCell>
        <mxCell id="nYlhv1HcqgW-4Q8vFlGa-61" style="edgeStyle=orthogonalEdgeStyle;rounded=0;orthogonalLoop=1;jettySize=auto;html=1;exitX=1;exitY=0.5;exitDx=0;exitDy=0;entryX=0.836;entryY=0.012;entryDx=0;entryDy=0;entryPerimeter=0;endArrow=none;endFill=0;startArrow=block;startFill=1;dashed=1;dashPattern=8 8;" edge="1" parent="nYlhv1HcqgW-4Q8vFlGa-1" source="nYlhv1HcqgW-4Q8vFlGa-58" target="nYlhv1HcqgW-4Q8vFlGa-13">
          <mxGeometry relative="1" as="geometry">
            <Array as="points">
              <mxPoint x="990" y="460" />
              <mxPoint x="990" y="745" />
              <mxPoint x="569" y="745" />
            </Array>
          </mxGeometry>
        </mxCell>
        <mxCell id="nYlhv1HcqgW-4Q8vFlGa-62" value="&lt;font style=&quot;font-size: 20px;&quot;&gt;1..*&lt;/font&gt;" style="text;html=1;align=center;verticalAlign=middle;whiteSpace=wrap;rounded=0;fontSize=13;" vertex="1" parent="nYlhv1HcqgW-4Q8vFlGa-1">
          <mxGeometry x="797" y="897" width="35" height="30" as="geometry" />
        </mxCell>
        <mxCell id="nYlhv1HcqgW-4Q8vFlGa-63" style="edgeStyle=orthogonalEdgeStyle;rounded=0;orthogonalLoop=1;jettySize=auto;html=1;exitX=0;exitY=0.5;exitDx=0;exitDy=0;endArrow=none;endFill=0;startArrow=block;startFill=1;" edge="1" parent="nYlhv1HcqgW-4Q8vFlGa-1" source="nYlhv1HcqgW-4Q8vFlGa-64">
          <mxGeometry relative="1" as="geometry">
            <mxPoint x="712" y="836.5" as="targetPoint" />
            <mxPoint x="832" y="809.4999999999998" as="sourcePoint" />
            <Array as="points">
              <mxPoint x="712" y="799" />
            </Array>
          </mxGeometry>
        </mxCell>
        <mxCell id="nYlhv1HcqgW-4Q8vFlGa-64" value="&lt;span style=&quot;font-size: 17px;&quot;&gt;Solution&lt;/span&gt;" style="rounded=0;whiteSpace=wrap;html=1;" vertex="1" parent="nYlhv1HcqgW-4Q8vFlGa-1">
          <mxGeometry x="832" y="769" width="130" height="60" as="geometry" />
        </mxCell>
        <mxCell id="nYlhv1HcqgW-4Q8vFlGa-65" value="&lt;font style=&quot;font-size: 20px;&quot;&gt;1&lt;/font&gt;" style="text;html=1;align=center;verticalAlign=middle;whiteSpace=wrap;rounded=0;fontSize=13;" vertex="1" parent="nYlhv1HcqgW-4Q8vFlGa-1">
          <mxGeometry x="803" y="769" width="35" height="30" as="geometry" />
        </mxCell>
        <mxCell id="nYlhv1HcqgW-4Q8vFlGa-66" value="&lt;div&gt;&lt;font style=&quot;font-size: 17px;&quot;&gt;&amp;lt;&amp;lt;enumeration&amp;gt;&amp;gt;&lt;/font&gt;&lt;/div&gt;&lt;font style=&quot;font-size: 17px;&quot;&gt;DifficultyLevel&lt;/font&gt;" style="rounded=0;whiteSpace=wrap;html=1;" vertex="1" parent="nYlhv1HcqgW-4Q8vFlGa-1">
          <mxGeometry x="-431" y="862" width="183" height="60" as="geometry" />
        </mxCell>
        <mxCell id="nYlhv1HcqgW-4Q8vFlGa-67" value="&lt;font style=&quot;font-size: 20px;&quot;&gt;4&lt;/font&gt;" style="text;html=1;align=center;verticalAlign=middle;whiteSpace=wrap;rounded=0;fontSize=13;" vertex="1" parent="nYlhv1HcqgW-4Q8vFlGa-1">
          <mxGeometry x="430" y="862" width="35" height="30" as="geometry" />
        </mxCell>
        <mxCell id="nYlhv1HcqgW-4Q8vFlGa-68" value="&lt;font style=&quot;font-size: 20px;&quot;&gt;1&lt;/font&gt;" style="text;html=1;align=center;verticalAlign=middle;whiteSpace=wrap;rounded=0;fontSize=13;" vertex="1" parent="nYlhv1HcqgW-4Q8vFlGa-1">
          <mxGeometry x="-247" y="864" width="31" height="30" as="geometry" />
        </mxCell>
        <mxCell id="nYlhv1HcqgW-4Q8vFlGa-69" style="edgeStyle=orthogonalEdgeStyle;rounded=0;orthogonalLoop=1;jettySize=auto;html=1;exitX=0.25;exitY=1;exitDx=0;exitDy=0;entryX=0.5;entryY=0;entryDx=0;entryDy=0;dashed=1;dashPattern=8 8;endArrow=block;endFill=1;" edge="1" parent="nYlhv1HcqgW-4Q8vFlGa-1" source="nYlhv1HcqgW-4Q8vFlGa-7" target="nYlhv1HcqgW-4Q8vFlGa-66">
          <mxGeometry relative="1" as="geometry">
            <Array as="points">
              <mxPoint x="493" y="765" />
              <mxPoint x="-339" y="765" />
            </Array>
          </mxGeometry>
        </mxCell>
        <mxCell id="nYlhv1HcqgW-4Q8vFlGa-70" value="&lt;font style=&quot;font-size: 17px;&quot;&gt;Achievement&lt;/font&gt;" style="rounded=0;whiteSpace=wrap;html=1;" vertex="1" parent="nYlhv1HcqgW-4Q8vFlGa-1">
          <mxGeometry x="753" y="290" width="130" height="60" as="geometry" />
        </mxCell>
        <mxCell id="nYlhv1HcqgW-4Q8vFlGa-71" value="&lt;font style=&quot;font-size: 20px;&quot;&gt;0..*&lt;/font&gt;" style="text;html=1;align=center;verticalAlign=middle;whiteSpace=wrap;rounded=0;fontSize=13;" vertex="1" parent="nYlhv1HcqgW-4Q8vFlGa-1">
          <mxGeometry x="520" y="404" width="35" height="30" as="geometry" />
        </mxCell>
        <mxCell id="nYlhv1HcqgW-4Q8vFlGa-72" value="&lt;font style=&quot;font-size: 20px;&quot;&gt;0..*&lt;/font&gt;" style="text;html=1;align=center;verticalAlign=middle;whiteSpace=wrap;rounded=0;fontSize=13;" vertex="1" parent="nYlhv1HcqgW-4Q8vFlGa-1">
          <mxGeometry x="778" y="349" width="35" height="30" as="geometry" />
        </mxCell>
        <mxCell id="nYlhv1HcqgW-4Q8vFlGa-73" value="&lt;font style=&quot;font-size: 20px;&quot;&gt;4&lt;/font&gt;" style="text;html=1;align=center;verticalAlign=middle;whiteSpace=wrap;rounded=0;fontSize=13;" vertex="1" parent="nYlhv1HcqgW-4Q8vFlGa-1">
          <mxGeometry x="430" y="805" width="35" height="30" as="geometry" />
        </mxCell>
        <mxCell id="nYlhv1HcqgW-4Q8vFlGa-74" style="edgeStyle=orthogonalEdgeStyle;rounded=0;orthogonalLoop=1;jettySize=auto;html=1;entryX=0.75;entryY=1;entryDx=0;entryDy=0;dashed=1;endArrow=block;endFill=1;dashPattern=8 8;" edge="1" parent="nYlhv1HcqgW-4Q8vFlGa-1" source="nYlhv1HcqgW-4Q8vFlGa-77" target="nYlhv1HcqgW-4Q8vFlGa-27">
          <mxGeometry relative="1" as="geometry" />
        </mxCell>
        <mxCell id="nYlhv1HcqgW-4Q8vFlGa-75" style="edgeStyle=orthogonalEdgeStyle;rounded=0;orthogonalLoop=1;jettySize=auto;html=1;exitX=1;exitY=0.5;exitDx=0;exitDy=0;entryX=1;entryY=0.5;entryDx=0;entryDy=0;endArrow=block;endFill=1;" edge="1" parent="nYlhv1HcqgW-4Q8vFlGa-1" source="nYlhv1HcqgW-4Q8vFlGa-77" target="nYlhv1HcqgW-4Q8vFlGa-70">
          <mxGeometry relative="1" as="geometry">
            <Array as="points">
              <mxPoint x="1062" y="555" />
              <mxPoint x="1062" y="320" />
            </Array>
          </mxGeometry>
        </mxCell>
        <mxCell id="nYlhv1HcqgW-4Q8vFlGa-76" value="&lt;font style=&quot;font-size: 16px;&quot;&gt;creates&lt;/font&gt;" style="edgeLabel;html=1;align=center;verticalAlign=middle;resizable=0;points=[];" vertex="1" connectable="0" parent="nYlhv1HcqgW-4Q8vFlGa-75">
          <mxGeometry x="0.0588" y="-3" relative="1" as="geometry">
            <mxPoint as="offset" />
          </mxGeometry>
        </mxCell>
        <mxCell id="nYlhv1HcqgW-4Q8vFlGa-77" value="&lt;font style=&quot;font-size: 17px;&quot;&gt;Admin&lt;/font&gt;" style="rounded=0;whiteSpace=wrap;html=1;" vertex="1" parent="nYlhv1HcqgW-4Q8vFlGa-1">
          <mxGeometry x="742.5" y="525" width="130" height="60" as="geometry" />
        </mxCell>
        <mxCell id="nYlhv1HcqgW-4Q8vFlGa-78" value="&lt;font style=&quot;font-size: 20px;&quot;&gt;1&lt;/font&gt;" style="text;html=1;align=center;verticalAlign=middle;whiteSpace=wrap;rounded=0;fontSize=13;" vertex="1" parent="nYlhv1HcqgW-4Q8vFlGa-1">
          <mxGeometry x="869" y="558" width="35" height="30" as="geometry" />
        </mxCell>
        <mxCell id="nYlhv1HcqgW-4Q8vFlGa-79" value="&lt;font style=&quot;font-size: 30px;&quot;&gt;*&lt;/font&gt;" style="text;html=1;align=center;verticalAlign=middle;whiteSpace=wrap;rounded=0;fontSize=13;" vertex="1" parent="nYlhv1HcqgW-4Q8vFlGa-1">
          <mxGeometry x="885" y="296" width="35" height="30" as="geometry" />
        </mxCell>
      </root>
    </mxGraphModel>
  </diagram>
</mxfile>
